<?xml version="1.0" encoding="utf-8"?>
<!-- Generator: Adobe Illustrator 26.0.3, SVG Export Plug-In . SVG Version: 6.00 Build 0)  -->
<svg version="1.1" id="Layer_1" xmlns="http://www.w3.org/2000/svg" xmlns:xlink="http://www.w3.org/1999/xlink" x="0px" y="0px"
	 viewBox="0 0 640 512" style="enable-background:new 0 0 640 512;" xml:space="preserve">
<style type="text/css">
	.st0{fill:#FFFFFF;}
</style>
<path class="st0" d="M640,384.2c0-5.3-0.5-10.6-1.4-16l-33.4-211.6C591.4,78,522,32,319.1,32C119,32,48.7,77.5,34.8,156.6L1.4,368.2
	c-0.9,5.4-1.4,10.7-1.4,16C0,436.1,44.6,480,101.5,480c49.7,0,93.8-30.1,109.5-74.6l7.5-21.4h203l7.5,21.4
	c15.7,44.6,59.8,74.6,109.5,74.6C595.4,479.1,640,436.1,640,384.2z M247.1,248l-32,0l0,32c0,13.2-10.8,24-24,24s-24-10.8-24-24l0-32
	l-32,0c-13.2,0-24-10.8-24-24s10.8-24,24-24l32,0l0-32c0-13.2,10.8-24,24-24s24,10.8,24,24l0,32l32,0c13.2,0,24,10.8,24,24
	C271.1,237.2,261.2,248,247.1,248z M432,311.1c-22.1,0-40-17.9-40-40s17.9-40,40-40s40,17.9,40,40C472,294.1,454.1,311.1,432,311.1z
	 M496,215.1c-22.1,0-40-17.9-40-40s17.9-40,40-40c22.1,0,40,17.9,40,40C536,198.1,518.1,215.1,496,215.1z"/>
</svg>
