<?xml version="1.0" encoding="UTF-8"?><svg id="a" xmlns="http://www.w3.org/2000/svg" viewBox="0 0 1920 1080"><defs><style>.b{fill:#5ca35b;}.c{fill:#4374ba;}</style></defs><rect class="c" width="1920" height="1080"/><path class="b" d="M157.5,51.25c-.43-.82-.93-1.62-1.52-2.39l-22.43-30.41c-8.56-11.19-23.16-12.74-54.93,3.76-31.33,16.27-38.63,29.1-34.38,42.63l11.98,35.84c.29,.92,.65,1.79,1.08,2.62,4.22,8.12,14.77,11.37,23.68,6.75,7.78-4.04,12.24-12.33,11.07-20.59l-.56-3.95,31.78-16.51,2.91,2.73c6.09,5.7,15.43,6.82,23.21,2.78,8.84-4.77,12.32-15.13,8.1-23.25Zm-72.59,10.63l-5,2.6,2.6,5.01c1.07,2.07,.26,4.63-1.8,5.71s-4.64,.26-5.71-1.8l-2.6-5.01-5.01,2.61c-2.07,1.07-4.63,.26-5.71-1.81s-.27-4.63,1.8-5.71l5.02-2.61-2.61-5c-1.07-2.07-.26-4.64,1.81-5.71s4.63-.26,5.71,1.81l2.61,5.01,5-2.6c2.07-1.07,4.64-.26,5.71,1.8,1.07,2.07,.4,4.56-1.81,5.71Zm34.08-5.16c-3.46,1.8-7.72,.45-9.51-3.01s-.45-7.72,3.01-9.51,7.72-.45,9.51,3.01,.45,7.72-3.01,9.51Zm2.21-20.23c-3.46,1.8-7.72,.45-9.51-3.01s-.45-7.72,3.01-9.51,7.72-.45,9.51,3.01,.45,7.72-3.01,9.51Z"/><path class="b" d="M317.74,142.11c-.43-.82-.93-1.62-1.52-2.39l-22.43-30.41c-8.56-11.19-23.16-12.74-54.93,3.76-31.33,16.27-38.63,29.1-34.38,42.63l11.98,35.84c.29,.92,.65,1.79,1.08,2.62,4.22,8.12,14.77,11.37,23.68,6.75,7.78-4.04,12.24-12.33,11.07-20.59l-.56-3.95,31.78-16.51,2.91,2.73c6.09,5.7,15.43,6.82,23.21,2.78,8.84-4.77,12.32-15.13,8.1-23.25Zm-72.59,10.63l-5,2.6,2.6,5.01c1.07,2.07,.26,4.63-1.8,5.71s-4.64,.26-5.71-1.8l-2.6-5.01-5.01,2.61c-2.07,1.07-4.63,.26-5.71-1.81s-.27-4.63,1.8-5.71l5.02-2.61-2.61-5c-1.07-2.07-.26-4.64,1.81-5.71s4.63-.26,5.71,1.81l2.61,5.01,5-2.6c2.07-1.07,4.64-.26,5.71,1.8,1.07,2.07,.4,4.56-1.81,5.71Zm34.08-5.16c-3.46,1.8-7.72,.45-9.51-3.01s-.45-7.72,3.01-9.51,7.72-.45,9.51,3.01c1.87,3.6,.45,7.72-3.01,9.51Zm2.21-20.23c-3.46,1.8-7.72,.45-9.51-3.01s-.45-7.72,3.01-9.51,7.72-.45,9.51,3.01,.45,7.72-3.01,9.51Z"/><path class="b" d="M157.5,268.5c-.43-.82-.93-1.62-1.52-2.39l-22.43-30.41c-8.56-11.19-23.16-12.74-54.93,3.76-31.33,16.27-38.63,29.1-34.38,42.63l11.98,35.84c.29,.92,.65,1.79,1.08,2.62,4.22,8.12,14.77,11.37,23.68,6.75,7.78-4.04,12.24-12.33,11.07-20.59l-.56-3.95,31.78-16.51,2.91,2.73c6.09,5.7,15.43,6.82,23.21,2.78,8.84-4.77,12.32-15.13,8.1-23.25Zm-72.59,10.63l-5,2.6,2.6,5.01c1.07,2.07,.26,4.63-1.8,5.71s-4.64,.26-5.71-1.8l-2.6-5.01-5.01,2.61c-2.07,1.07-4.63,.26-5.71-1.81s-.27-4.63,1.8-5.71l5.02-2.61-2.61-5c-1.07-2.07-.26-4.64,1.81-5.71s4.63-.26,5.71,1.81l2.61,5.01,5-2.6c2.07-1.07,4.64-.26,5.71,1.8,1.07,2.07,.4,4.56-1.81,5.71Zm34.08-5.16c-3.46,1.8-7.72,.45-9.51-3.01s-.45-7.72,3.01-9.51,7.72-.45,9.51,3.01,.45,7.72-3.01,9.51Zm2.21-20.23c-3.46,1.8-7.72,.45-9.51-3.01s-.45-7.72,3.01-9.51,7.72-.45,9.51,3.01,.45,7.72-3.01,9.51Z"/><path class="b" d="M317.74,359.36c-.43-.82-.93-1.62-1.52-2.39l-22.43-30.41c-8.56-11.19-23.16-12.74-54.93,3.76-31.33,16.27-38.63,29.1-34.38,42.63l11.98,35.84c.29,.92,.65,1.79,1.08,2.62,4.22,8.12,14.77,11.37,23.68,6.75,7.78-4.04,12.24-12.33,11.07-20.59l-.56-3.95,31.78-16.51,2.91,2.73c6.09,5.7,15.43,6.82,23.21,2.78,8.84-4.77,12.32-15.13,8.1-23.25Zm-72.59,10.63l-5,2.6,2.6,5.01c1.07,2.07,.26,4.63-1.8,5.71s-4.64,.26-5.71-1.8l-2.6-5.01-5.01,2.61c-2.07,1.07-4.63,.26-5.71-1.81s-.27-4.63,1.8-5.71l5.02-2.61-2.61-5c-1.07-2.07-.26-4.64,1.81-5.71s4.63-.26,5.71,1.81l2.61,5.01,5-2.6c2.07-1.07,4.64-.26,5.71,1.8,1.07,2.07,.4,4.56-1.81,5.71Zm34.08-5.16c-3.46,1.8-7.72,.45-9.51-3.01s-.45-7.72,3.01-9.51,7.72-.45,9.51,3.01,.45,7.72-3.01,9.51Zm2.21-20.23c-3.46,1.8-7.72,.45-9.51-3.01s-.45-7.72,3.01-9.51c3.46-1.8,7.72-.45,9.51,3.01,1.87,3.6,.45,7.72-3.01,9.51Z"/><path class="b" d="M157.5,485.76c-.43-.82-.93-1.62-1.52-2.39l-22.43-30.41c-8.56-11.19-23.16-12.74-54.93,3.76-31.33,16.27-38.63,29.1-34.38,42.63l11.98,35.84c.29,.92,.65,1.79,1.08,2.62,4.22,8.12,14.77,11.37,23.68,6.75,7.78-4.04,12.24-12.33,11.07-20.59l-.56-3.95,31.78-16.51,2.91,2.73c6.09,5.7,15.43,6.82,23.21,2.78,8.84-4.77,12.32-15.13,8.1-23.25Zm-72.59,10.63l-5,2.6,2.6,5.01c1.07,2.07,.26,4.63-1.8,5.71s-4.64,.26-5.71-1.8l-2.6-5.01-5.01,2.61c-2.07,1.07-4.63,.26-5.71-1.81s-.27-4.63,1.8-5.71l5.02-2.61-2.61-5c-1.07-2.07-.26-4.64,1.81-5.71s4.63-.26,5.71,1.81l2.61,5.01,5-2.6c2.07-1.07,4.64-.26,5.71,1.8,1.07,2.07,.4,4.56-1.81,5.71Zm34.08-5.16c-3.46,1.8-7.72,.45-9.51-3.01s-.45-7.72,3.01-9.51,7.72-.45,9.51,3.01,.45,7.72-3.01,9.51Zm2.21-20.23c-3.46,1.8-7.72,.45-9.51-3.01s-.45-7.72,3.01-9.51,7.72-.45,9.51,3.01,.45,7.72-3.01,9.51Z"/><path class="b" d="M317.74,576.62c-.43-.82-.93-1.62-1.52-2.39l-22.43-30.41c-8.56-11.19-23.16-12.74-54.93,3.76s-38.63,29.1-34.38,42.63l11.98,35.84c.29,.92,.65,1.79,1.08,2.62,4.22,8.12,14.77,11.37,23.68,6.75,7.78-4.04,12.24-12.33,11.07-20.59l-.56-3.95,31.78-16.51,2.91,2.73c6.09,5.7,15.43,6.82,23.21,2.78,8.84-4.77,12.32-15.13,8.1-23.25Zm-72.59,10.63l-5,2.6,2.6,5.01c1.07,2.07,.26,4.63-1.8,5.71s-4.64,.26-5.71-1.8l-2.6-5.01-5.01,2.61c-2.07,1.07-4.63,.26-5.71-1.81s-.27-4.63,1.8-5.71l5.02-2.61-2.61-5c-1.07-2.07-.26-4.64,1.81-5.71s4.63-.26,5.71,1.81l2.61,5.01,5-2.6c2.07-1.07,4.64-.26,5.71,1.8,1.07,2.07,.4,4.56-1.81,5.71Zm34.08-5.16c-3.46,1.8-7.72,.45-9.51-3.01-1.8-3.46-.45-7.72,3.01-9.51s7.72-.45,9.51,3.01,.45,7.72-3.01,9.51Zm2.21-20.23c-3.46,1.8-7.72,.45-9.51-3.01s-.45-7.72,3.01-9.51,7.72-.45,9.51,3.01,.45,7.72-3.01,9.51Z"/><path class="b" d="M157.5,703.02c-.43-.82-.93-1.62-1.52-2.39l-22.43-30.41c-8.56-11.19-23.16-12.74-54.93,3.76-31.33,16.27-38.63,29.1-34.38,42.63l11.98,35.84c.29,.92,.65,1.79,1.08,2.62,4.22,8.12,14.77,11.37,23.68,6.75,7.78-4.04,12.24-12.33,11.07-20.59l-.56-3.95,31.78-16.51,2.91,2.73c6.09,5.7,15.43,6.82,23.21,2.78,8.84-4.77,12.32-15.13,8.1-23.25Zm-72.59,10.63l-5,2.6,2.6,5.01c1.07,2.07,.26,4.63-1.8,5.71s-4.64,.26-5.71-1.8l-2.6-5.01-5.01,2.61c-2.07,1.07-4.63,.26-5.71-1.81s-.27-4.63,1.8-5.71l5.02-2.61-2.61-5c-1.07-2.07-.26-4.64,1.81-5.71s4.63-.26,5.71,1.81l2.61,5.01,5-2.6c2.07-1.07,4.64-.26,5.71,1.8,1.07,2.07,.4,4.56-1.81,5.71Zm34.08-5.16c-3.46,1.8-7.72,.45-9.51-3.01s-.45-7.72,3.01-9.51,7.72-.45,9.51,3.01,.45,7.72-3.01,9.51Zm2.21-20.23c-3.46,1.8-7.72,.45-9.51-3.01s-.45-7.72,3.01-9.51,7.72-.45,9.51,3.01,.45,7.72-3.01,9.51Z"/><path class="b" d="M317.74,793.88c-.43-.82-.93-1.62-1.52-2.39l-22.43-30.41c-8.56-11.19-23.16-12.74-54.93,3.76s-38.63,29.1-34.38,42.63l11.98,35.84c.29,.92,.65,1.79,1.08,2.62,4.22,8.12,14.77,11.37,23.68,6.75,7.78-4.04,12.24-12.33,11.07-20.59l-.56-3.95,31.78-16.51,2.91,2.73c6.09,5.7,15.43,6.82,23.21,2.78,8.84-4.77,12.32-15.13,8.1-23.25Zm-72.59,10.63l-5,2.6,2.6,5.01c1.07,2.07,.26,4.63-1.8,5.71s-4.64,.26-5.71-1.8l-2.6-5.01-5.01,2.61c-2.07,1.07-4.63,.26-5.71-1.81s-.27-4.63,1.8-5.71l5.02-2.61-2.61-5c-1.07-2.07-.26-4.64,1.81-5.71s4.63-.26,5.71,1.81l2.61,5.01,5-2.6c2.07-1.07,4.64-.26,5.71,1.8,1.07,2.07,.4,4.56-1.81,5.71Zm34.08-5.16c-3.46,1.8-7.72,.45-9.51-3.01s-.45-7.72,3.01-9.51,7.72-.45,9.51,3.01,.45,7.72-3.01,9.51Zm2.21-20.23c-3.46,1.8-7.72,.45-9.51-3.01s-.45-7.72,3.01-9.51,7.72-.45,9.51,3.01c1.87,3.6,.45,7.72-3.01,9.51Z"/><path class="b" d="M157.5,920.28c-.43-.82-.93-1.62-1.52-2.39l-22.43-30.41c-8.56-11.19-23.16-12.74-54.93,3.76-31.33,16.27-38.63,29.1-34.38,42.63l11.98,35.84c.29,.92,.65,1.79,1.08,2.62,4.22,8.12,14.77,11.37,23.68,6.75,7.78-4.04,12.24-12.33,11.07-20.59l-.56-3.95,31.78-16.51,2.91,2.73c6.09,5.7,15.43,6.82,23.21,2.78,8.84-4.77,12.32-15.13,8.1-23.25Zm-72.59,10.63l-5,2.6,2.6,5.01c1.07,2.07,.26,4.63-1.8,5.71s-4.64,.26-5.71-1.8l-2.6-5.01-5.01,2.61c-2.07,1.07-4.63,.26-5.71-1.81s-.27-4.63,1.8-5.71l5.02-2.61-2.61-5c-1.07-2.07-.26-4.64,1.81-5.71s4.63-.26,5.71,1.81l2.61,5.01,5-2.6c2.07-1.07,4.64-.26,5.71,1.8,1.07,2.07,.4,4.56-1.81,5.71Zm34.08-5.16c-3.46,1.8-7.72,.45-9.51-3.01s-.45-7.72,3.01-9.51,7.72-.45,9.51,3.01,.45,7.72-3.01,9.51Zm2.21-20.23c-3.46,1.8-7.72,.45-9.51-3.01s-.45-7.72,3.01-9.51,7.72-.45,9.51,3.01,.45,7.72-3.01,9.51Z"/><path class="b" d="M317.74,1011.14c-.43-.82-.93-1.62-1.52-2.39l-22.43-30.41c-8.56-11.19-23.16-12.74-54.93,3.76s-38.63,29.1-34.38,42.63l11.98,35.84c.29,.92,.65,1.79,1.08,2.62,4.22,8.12,14.77,11.37,23.68,6.75,7.78-4.04,12.24-12.33,11.07-20.59l-.56-3.95,31.78-16.51,2.91,2.73c6.09,5.7,15.43,6.82,23.21,2.78,8.84-4.77,12.32-15.13,8.1-23.25Zm-72.59,10.63l-5,2.6,2.6,5.01c1.07,2.07,.26,4.63-1.8,5.71-2.07,1.07-4.64,.26-5.71-1.8l-2.6-5.01-5.01,2.61c-2.07,1.07-4.63,.26-5.71-1.81-1.07-2.07-.27-4.63,1.8-5.71l5.02-2.61-2.61-5c-1.07-2.07-.26-4.64,1.81-5.71,2.07-1.07,4.63-.26,5.71,1.81l2.61,5.01,5-2.6c2.07-1.07,4.64-.26,5.71,1.8,1.07,2.07,.4,4.56-1.81,5.71Zm34.08-5.16c-3.46,1.8-7.72,.45-9.51-3.01s-.45-7.72,3.01-9.51c3.46-1.8,7.72-.45,9.51,3.01,1.87,3.6,.45,7.72-3.01,9.51Zm2.21-20.23c-3.46,1.8-7.72,.45-9.51-3.01s-.45-7.72,3.01-9.51,7.72-.45,9.51,3.01c1.87,3.6,.45,7.72-3.01,9.51Z"/><path class="b" d="M510.65,54.8c-.43-.82-.93-1.62-1.52-2.39l-22.43-30.41c-8.56-11.19-23.16-12.74-54.93,3.76-31.33,16.27-38.63,29.1-34.38,42.63l11.98,35.84c.29,.92,.65,1.79,1.08,2.62,4.22,8.12,14.77,11.37,23.68,6.75,7.78-4.04,12.24-12.33,11.07-20.59l-.56-3.95,31.78-16.51,2.91,2.73c6.09,5.7,15.43,6.82,23.21,2.78,8.84-4.77,12.32-15.13,8.1-23.25Zm-72.59,10.63l-5,2.6,2.6,5.01c1.07,2.07,.26,4.63-1.8,5.71s-4.64,.26-5.71-1.8l-2.6-5.01-5.01,2.61c-2.07,1.07-4.63,.26-5.71-1.81s-.27-4.63,1.8-5.71l5.02-2.61-2.61-5c-1.07-2.07-.26-4.64,1.81-5.71s4.63-.26,5.71,1.81l2.61,5.01,5-2.6c2.07-1.07,4.64-.26,5.71,1.8,1.07,2.07,.4,4.56-1.81,5.71Zm34.08-5.16c-3.46,1.8-7.72,.45-9.51-3.01s-.45-7.72,3.01-9.51,7.72-.45,9.51,3.01,.45,7.72-3.01,9.51Zm2.21-20.23c-3.46,1.8-7.72,.45-9.51-3.01-1.8-3.46-.45-7.72,3.01-9.51s7.72-.45,9.51,3.01,.45,7.72-3.01,9.51Z"/><path class="b" d="M670.89,145.67c-.43-.82-.93-1.62-1.52-2.39l-22.43-30.41c-8.56-11.19-23.16-12.74-54.93,3.76-31.33,16.27-38.63,29.1-34.38,42.63l11.98,35.84c.29,.92,.65,1.79,1.08,2.62,4.22,8.12,14.77,11.37,23.68,6.75,7.78-4.04,12.24-12.33,11.07-20.59l-.56-3.95,31.78-16.51,2.91,2.73c6.09,5.7,15.43,6.82,23.21,2.78,8.84-4.77,12.32-15.13,8.1-23.25Zm-72.59,10.63l-5,2.6,2.6,5.01c1.07,2.07,.26,4.63-1.8,5.71s-4.64,.26-5.71-1.8l-2.6-5.01-5.01,2.61c-2.07,1.07-4.63,.26-5.71-1.81s-.27-4.63,1.8-5.71l5.02-2.61-2.61-5c-1.07-2.07-.26-4.64,1.81-5.71s4.63-.26,5.71,1.81l2.61,5.01,5-2.6c2.07-1.07,4.64-.26,5.71,1.8,1.07,2.07,.4,4.56-1.81,5.71Zm34.08-5.16c-3.46,1.8-7.72,.45-9.51-3.01s-.45-7.72,3.01-9.51,7.72-.45,9.51,3.01c1.87,3.6,.45,7.72-3.01,9.51Zm2.21-20.23c-3.46,1.8-7.72,.45-9.51-3.01-1.8-3.46-.45-7.72,3.01-9.51s7.72-.45,9.51,3.01,.45,7.72-3.01,9.51Z"/><path class="b" d="M510.65,272.06c-.43-.82-.93-1.62-1.52-2.39l-22.43-30.41c-8.56-11.19-23.16-12.74-54.93,3.76-31.33,16.27-38.63,29.1-34.38,42.63l11.98,35.84c.29,.92,.65,1.79,1.08,2.62,4.22,8.12,14.77,11.37,23.68,6.75,7.78-4.04,12.24-12.33,11.07-20.59l-.56-3.95,31.78-16.51,2.91,2.73c6.09,5.7,15.43,6.82,23.21,2.78,8.84-4.77,12.32-15.13,8.1-23.25Zm-72.59,10.63l-5,2.6,2.6,5.01c1.07,2.07,.26,4.63-1.8,5.71s-4.64,.26-5.71-1.8l-2.6-5.01-5.01,2.61c-2.07,1.07-4.63,.26-5.71-1.81s-.27-4.63,1.8-5.71l5.02-2.61-2.61-5c-1.07-2.07-.26-4.64,1.81-5.71s4.63-.26,5.71,1.81l2.61,5.01,5-2.6c2.07-1.07,4.64-.26,5.71,1.8,1.07,2.07,.4,4.56-1.81,5.71Zm34.08-5.16c-3.46,1.8-7.72,.45-9.51-3.01s-.45-7.72,3.01-9.51,7.72-.45,9.51,3.01,.45,7.72-3.01,9.51Zm2.21-20.23c-3.46,1.8-7.72,.45-9.51-3.01-1.8-3.46-.45-7.72,3.01-9.51s7.72-.45,9.51,3.01,.45,7.72-3.01,9.51Z"/><path class="b" d="M670.89,362.92c-.43-.82-.93-1.62-1.52-2.39l-22.43-30.41c-8.56-11.19-23.16-12.74-54.93,3.76s-38.63,29.1-34.38,42.63l11.98,35.84c.29,.92,.65,1.79,1.08,2.62,4.22,8.12,14.77,11.37,23.68,6.75,7.78-4.04,12.24-12.33,11.07-20.59l-.56-3.95,31.78-16.51,2.91,2.73c6.09,5.7,15.43,6.82,23.21,2.78,8.84-4.77,12.32-15.13,8.1-23.25Zm-72.59,10.63l-5,2.6,2.6,5.01c1.07,2.07,.26,4.63-1.8,5.71s-4.64,.26-5.71-1.8l-2.6-5.01-5.01,2.61c-2.07,1.07-4.63,.26-5.71-1.81s-.27-4.63,1.8-5.71l5.02-2.61-2.61-5c-1.07-2.07-.26-4.64,1.81-5.71s4.63-.26,5.71,1.81l2.61,5.01,5-2.6c2.07-1.07,4.64-.26,5.71,1.8,1.07,2.07,.4,4.56-1.81,5.71Zm34.08-5.16c-3.46,1.8-7.72,.45-9.51-3.01s-.45-7.72,3.01-9.51,7.72-.45,9.51,3.01,.45,7.72-3.01,9.51Zm2.21-20.23c-3.46,1.8-7.72,.45-9.51-3.01-1.8-3.46-.45-7.72,3.01-9.51s7.72-.45,9.51,3.01,.45,7.72-3.01,9.51Z"/><path class="b" d="M510.65,489.32c-.43-.82-.93-1.62-1.52-2.39l-22.43-30.41c-8.56-11.19-23.16-12.74-54.93,3.76-31.33,16.27-38.63,29.1-34.38,42.63l11.98,35.84c.29,.92,.65,1.79,1.08,2.62,4.22,8.12,14.77,11.37,23.68,6.75,7.78-4.04,12.24-12.33,11.07-20.59l-.56-3.95,31.78-16.51,2.91,2.73c6.09,5.7,15.43,6.82,23.21,2.78,8.84-4.77,12.32-15.13,8.1-23.25Zm-72.59,10.63l-5,2.6,2.6,5.01c1.07,2.07,.26,4.63-1.8,5.71s-4.64,.26-5.71-1.8l-2.6-5.01-5.01,2.61c-2.07,1.07-4.63,.26-5.71-1.81s-.27-4.63,1.8-5.71l5.02-2.61-2.61-5c-1.07-2.07-.26-4.64,1.81-5.71s4.63-.26,5.71,1.81l2.61,5.01,5-2.6c2.07-1.07,4.64-.26,5.71,1.8,1.07,2.07,.4,4.56-1.81,5.71Zm34.08-5.16c-3.46,1.8-7.72,.45-9.51-3.01s-.45-7.72,3.01-9.51,7.72-.45,9.51,3.01,.45,7.72-3.01,9.51Zm2.21-20.23c-3.46,1.8-7.72,.45-9.51-3.01-1.8-3.46-.45-7.72,3.01-9.51s7.72-.45,9.51,3.01,.45,7.72-3.01,9.51Z"/><path class="b" d="M670.89,580.18c-.43-.82-.93-1.62-1.52-2.39l-22.43-30.41c-8.56-11.19-23.16-12.74-54.93,3.76s-38.63,29.1-34.38,42.63l11.98,35.84c.29,.92,.65,1.79,1.08,2.62,4.22,8.12,14.77,11.37,23.68,6.75,7.78-4.04,12.24-12.33,11.07-20.59l-.56-3.95,31.78-16.51,2.91,2.73c6.09,5.7,15.43,6.82,23.21,2.78,8.84-4.77,12.32-15.13,8.1-23.25Zm-72.59,10.63l-5,2.6,2.6,5.01c1.07,2.07,.26,4.63-1.8,5.71s-4.64,.26-5.71-1.8l-2.6-5.01-5.01,2.61c-2.07,1.07-4.63,.26-5.71-1.81s-.27-4.63,1.8-5.71l5.02-2.61-2.61-5c-1.07-2.07-.26-4.64,1.81-5.71s4.63-.26,5.71,1.81l2.61,5.01,5-2.6c2.07-1.07,4.64-.26,5.71,1.8,1.07,2.07,.4,4.56-1.81,5.71Zm34.08-5.16c-3.46,1.8-7.72,.45-9.51-3.01-1.8-3.46-.45-7.72,3.01-9.51s7.72-.45,9.51,3.01,.45,7.72-3.01,9.51Zm2.21-20.23c-3.46,1.8-7.72,.45-9.51-3.01s-.45-7.72,3.01-9.51,7.72-.45,9.51,3.01,.45,7.72-3.01,9.51Z"/><path class="b" d="M510.65,706.58c-.43-.82-.93-1.62-1.52-2.39l-22.43-30.41c-8.56-11.19-23.16-12.74-54.93,3.76-31.33,16.27-38.63,29.1-34.38,42.63l11.98,35.84c.29,.92,.65,1.79,1.08,2.62,4.22,8.12,14.77,11.37,23.68,6.75,7.78-4.04,12.24-12.33,11.07-20.59l-.56-3.95,31.78-16.51,2.91,2.73c6.09,5.7,15.43,6.82,23.21,2.78,8.84-4.77,12.32-15.13,8.1-23.25Zm-72.59,10.63l-5,2.6,2.6,5.01c1.07,2.07,.26,4.63-1.8,5.71s-4.64,.26-5.71-1.8l-2.6-5.01-5.01,2.61c-2.07,1.07-4.63,.26-5.71-1.81s-.27-4.63,1.8-5.71l5.02-2.61-2.61-5c-1.07-2.07-.26-4.64,1.81-5.71s4.63-.26,5.71,1.81l2.61,5.01,5-2.6c2.07-1.07,4.64-.26,5.71,1.8,1.07,2.07,.4,4.56-1.81,5.71Zm34.08-5.16c-3.46,1.8-7.72,.45-9.51-3.01s-.45-7.72,3.01-9.51,7.72-.45,9.51,3.01,.45,7.72-3.01,9.51Zm2.21-20.23c-3.46,1.8-7.72,.45-9.51-3.01s-.45-7.72,3.01-9.51,7.72-.45,9.51,3.01,.45,7.72-3.01,9.51Z"/><path class="b" d="M670.89,797.44c-.43-.82-.93-1.62-1.52-2.39l-22.43-30.41c-8.56-11.19-23.16-12.74-54.93,3.76s-38.63,29.1-34.38,42.63l11.98,35.84c.29,.92,.65,1.79,1.08,2.62,4.22,8.12,14.77,11.37,23.68,6.75,7.78-4.04,12.24-12.33,11.07-20.59l-.56-3.95,31.78-16.51,2.91,2.73c6.09,5.7,15.43,6.82,23.21,2.78,8.84-4.77,12.32-15.13,8.1-23.25Zm-72.59,10.63l-5,2.6,2.6,5.01c1.07,2.07,.26,4.63-1.8,5.71s-4.64,.26-5.71-1.8l-2.6-5.01-5.01,2.61c-2.07,1.07-4.63,.26-5.71-1.81s-.27-4.63,1.8-5.71l5.02-2.61-2.61-5c-1.07-2.07-.26-4.64,1.81-5.71s4.63-.26,5.71,1.81l2.61,5.01,5-2.6c2.07-1.07,4.64-.26,5.71,1.8,1.07,2.07,.4,4.56-1.81,5.71Zm34.08-5.16c-3.46,1.8-7.72,.45-9.51-3.01s-.45-7.72,3.01-9.51,7.72-.45,9.51,3.01,.45,7.72-3.01,9.51Zm2.21-20.23c-3.46,1.8-7.72,.45-9.51-3.01-1.8-3.46-.45-7.72,3.01-9.51s7.72-.45,9.51,3.01,.45,7.72-3.01,9.51Z"/><path class="b" d="M510.65,923.84c-.43-.82-.93-1.62-1.52-2.39l-22.43-30.41c-8.56-11.19-23.16-12.74-54.93,3.76-31.33,16.27-38.63,29.1-34.38,42.63l11.98,35.84c.29,.92,.65,1.79,1.08,2.62,4.22,8.12,14.77,11.37,23.68,6.75,7.78-4.04,12.24-12.33,11.07-20.59l-.56-3.95,31.78-16.51,2.91,2.73c6.09,5.7,15.43,6.82,23.21,2.78,8.84-4.77,12.32-15.13,8.1-23.25Zm-72.59,10.63l-5,2.6,2.6,5.01c1.07,2.07,.26,4.63-1.8,5.71s-4.64,.26-5.71-1.8l-2.6-5.01-5.01,2.61c-2.07,1.07-4.63,.26-5.71-1.81s-.27-4.63,1.8-5.71l5.02-2.61-2.61-5c-1.07-2.07-.26-4.64,1.81-5.71s4.63-.26,5.71,1.81l2.61,5.01,5-2.6c2.07-1.07,4.64-.26,5.71,1.8,1.07,2.07,.4,4.56-1.81,5.71Zm34.08-5.16c-3.46,1.8-7.72,.45-9.51-3.01s-.45-7.72,3.01-9.51,7.72-.45,9.51,3.01,.45,7.72-3.01,9.51Zm2.21-20.23c-3.46,1.8-7.72,.45-9.51-3.01s-.45-7.72,3.01-9.51,7.72-.45,9.51,3.01,.45,7.72-3.01,9.51Z"/><path class="b" d="M670.89,1014.7c-.43-.82-.93-1.62-1.52-2.39l-22.43-30.41c-8.56-11.19-23.16-12.74-54.93,3.76-31.33,16.27-38.63,29.1-34.38,42.63l11.98,35.84c.29,.92,.65,1.79,1.08,2.62,4.22,8.12,14.77,11.37,23.68,6.75,7.78-4.04,12.24-12.33,11.07-20.59l-.56-3.95,31.78-16.51,2.91,2.73c6.09,5.7,15.43,6.82,23.21,2.78,8.84-4.77,12.32-15.13,8.1-23.25Zm-72.59,10.63l-5,2.6,2.6,5.01c1.07,2.07,.26,4.63-1.8,5.71s-4.64,.26-5.71-1.8l-2.6-5.01-5.01,2.61c-2.07,1.07-4.63,.26-5.71-1.81-1.07-2.07-.27-4.63,1.8-5.71l5.02-2.61-2.61-5c-1.07-2.07-.26-4.64,1.81-5.71s4.63-.26,5.71,1.81l2.61,5.01,5-2.6c2.07-1.07,4.64-.26,5.71,1.8,1.07,2.07,.4,4.56-1.81,5.71Zm34.08-5.16c-3.46,1.8-7.72,.45-9.51-3.01s-.45-7.72,3.01-9.51c3.46-1.8,7.72-.45,9.51,3.01s.45,7.72-3.01,9.51Zm2.21-20.23c-3.46,1.8-7.72,.45-9.51-3.01-1.8-3.46-.45-7.72,3.01-9.51s7.72-.45,9.51,3.01,.45,7.72-3.01,9.51Z"/><path class="b" d="M851.62,51.25c-.43-.82-.93-1.62-1.52-2.39l-22.43-30.41c-8.56-11.19-23.16-12.74-54.93,3.76s-38.63,29.1-34.38,42.63l11.98,35.84c.29,.92,.65,1.79,1.08,2.62,4.22,8.12,14.77,11.37,23.68,6.75,7.78-4.04,12.24-12.33,11.07-20.59l-.56-3.95,31.78-16.51,2.91,2.73c6.09,5.7,15.43,6.82,23.21,2.78,8.84-4.77,12.32-15.13,8.1-23.25Zm-72.59,10.63l-5,2.6,2.6,5.01c1.07,2.07,.26,4.63-1.8,5.71s-4.64,.26-5.71-1.8l-2.6-5.01-5.01,2.61c-2.07,1.07-4.63,.26-5.71-1.81s-.27-4.63,1.8-5.71l5.02-2.61-2.61-5c-1.07-2.07-.26-4.64,1.81-5.71s4.63-.26,5.71,1.81l2.61,5.01,5-2.6c2.07-1.07,4.64-.26,5.71,1.8,1.07,2.07,.4,4.56-1.81,5.71Zm34.08-5.16c-3.46,1.8-7.72,.45-9.51-3.01s-.45-7.72,3.01-9.51,7.72-.45,9.51,3.01,.45,7.72-3.01,9.51Zm2.21-20.23c-3.46,1.8-7.72,.45-9.51-3.01s-.45-7.72,3.01-9.51,7.72-.45,9.51,3.01,.45,7.72-3.01,9.51Z"/><path class="b" d="M1011.86,142.11c-.43-.82-.93-1.62-1.52-2.39l-22.43-30.41c-8.56-11.19-23.16-12.74-54.93,3.76s-38.63,29.1-34.38,42.63l11.98,35.84c.29,.92,.65,1.79,1.08,2.62,4.22,8.12,14.77,11.37,23.68,6.75,7.78-4.04,12.24-12.33,11.07-20.59l-.56-3.95,31.78-16.51,2.91,2.73c6.09,5.7,15.43,6.82,23.21,2.78,8.84-4.77,12.32-15.13,8.1-23.25Zm-72.59,10.63l-5,2.6,2.6,5.01c1.07,2.07,.26,4.63-1.8,5.71s-4.64,.26-5.71-1.8l-2.6-5.01-5.01,2.61c-2.07,1.07-4.63,.26-5.71-1.81s-.27-4.63,1.8-5.71l5.02-2.61-2.61-5c-1.07-2.07-.26-4.64,1.81-5.71s4.63-.26,5.71,1.81l2.61,5.01,5-2.6c2.07-1.07,4.64-.26,5.71,1.8,1.07,2.07,.4,4.56-1.81,5.71Zm34.08-5.16c-3.46,1.8-7.72,.45-9.51-3.01s-.45-7.72,3.01-9.51,7.72-.45,9.51,3.01c1.87,3.6,.45,7.72-3.01,9.51Zm2.21-20.23c-3.46,1.8-7.72,.45-9.51-3.01s-.45-7.72,3.01-9.51,7.72-.45,9.51,3.01,.45,7.72-3.01,9.51Z"/><path class="b" d="M851.62,268.5c-.43-.82-.93-1.62-1.52-2.39l-22.43-30.41c-8.56-11.19-23.16-12.74-54.93,3.76-31.33,16.27-38.63,29.1-34.38,42.63l11.98,35.84c.29,.92,.65,1.79,1.08,2.62,4.22,8.12,14.77,11.37,23.68,6.75,7.78-4.04,12.24-12.33,11.07-20.59l-.56-3.95,31.78-16.51,2.91,2.73c6.09,5.7,15.43,6.82,23.21,2.78,8.84-4.77,12.32-15.13,8.1-23.25Zm-72.59,10.63l-5,2.6,2.6,5.01c1.07,2.07,.26,4.63-1.8,5.71s-4.64,.26-5.71-1.8l-2.6-5.01-5.01,2.61c-2.07,1.07-4.63,.26-5.71-1.81s-.27-4.63,1.8-5.71l5.02-2.61-2.61-5c-1.07-2.07-.26-4.64,1.81-5.71s4.63-.26,5.71,1.81l2.61,5.01,5-2.6c2.07-1.07,4.64-.26,5.71,1.8,1.07,2.07,.4,4.56-1.81,5.71Zm34.08-5.16c-3.46,1.8-7.72,.45-9.51-3.01s-.45-7.72,3.01-9.51,7.72-.45,9.51,3.01,.45,7.72-3.01,9.51Zm2.21-20.23c-3.46,1.8-7.72,.45-9.51-3.01s-.45-7.72,3.01-9.51,7.72-.45,9.51,3.01,.45,7.72-3.01,9.51Z"/><path class="b" d="M1011.86,359.36c-.43-.82-.93-1.62-1.52-2.39l-22.43-30.41c-8.56-11.19-23.16-12.74-54.93,3.76s-38.63,29.1-34.38,42.63l11.98,35.84c.29,.92,.65,1.79,1.08,2.62,4.22,8.12,14.77,11.37,23.68,6.75,7.78-4.04,12.24-12.33,11.07-20.59l-.56-3.95,31.78-16.51,2.91,2.73c6.09,5.7,15.43,6.82,23.21,2.78,8.84-4.77,12.32-15.13,8.1-23.25Zm-72.59,10.63l-5,2.6,2.6,5.01c1.07,2.07,.26,4.63-1.8,5.71s-4.64,.26-5.71-1.8l-2.6-5.01-5.01,2.61c-2.07,1.07-4.63,.26-5.71-1.81s-.27-4.63,1.8-5.71l5.02-2.61-2.61-5c-1.07-2.07-.26-4.64,1.81-5.71s4.63-.26,5.71,1.81l2.61,5.01,5-2.6c2.07-1.07,4.64-.26,5.71,1.8,1.07,2.07,.4,4.56-1.81,5.71Zm34.08-5.16c-3.46,1.8-7.72,.45-9.51-3.01s-.45-7.72,3.01-9.51,7.72-.45,9.51,3.01,.45,7.72-3.01,9.51Zm2.21-20.23c-3.46,1.8-7.72,.45-9.51-3.01s-.45-7.72,3.01-9.51,7.72-.45,9.51,3.01c1.87,3.6,.45,7.72-3.01,9.51Z"/><path class="b" d="M851.62,485.76c-.43-.82-.93-1.62-1.52-2.39l-22.43-30.41c-8.56-11.19-23.16-12.74-54.93,3.76s-38.63,29.1-34.38,42.63l11.98,35.84c.29,.92,.65,1.79,1.08,2.62,4.22,8.12,14.77,11.37,23.68,6.75,7.78-4.04,12.24-12.33,11.07-20.59l-.56-3.95,31.78-16.51,2.91,2.73c6.09,5.7,15.43,6.82,23.21,2.78,8.84-4.77,12.32-15.13,8.1-23.25Zm-72.59,10.63l-5,2.6,2.6,5.01c1.07,2.07,.26,4.63-1.8,5.71s-4.64,.26-5.71-1.8l-2.6-5.01-5.01,2.61c-2.07,1.07-4.63,.26-5.71-1.81s-.27-4.63,1.8-5.71l5.02-2.61-2.61-5c-1.07-2.07-.26-4.64,1.81-5.71s4.63-.26,5.71,1.81l2.61,5.01,5-2.6c2.07-1.07,4.64-.26,5.71,1.8,1.07,2.07,.4,4.56-1.81,5.71Zm34.08-5.16c-3.46,1.8-7.72,.45-9.51-3.01s-.45-7.72,3.01-9.51,7.72-.45,9.51,3.01,.45,7.72-3.01,9.51Zm2.21-20.23c-3.46,1.8-7.72,.45-9.51-3.01s-.45-7.72,3.01-9.51,7.72-.45,9.51,3.01,.45,7.72-3.01,9.51Z"/><path class="b" d="M1011.86,576.62c-.43-.82-.93-1.62-1.52-2.39l-22.43-30.41c-8.56-11.19-23.16-12.74-54.93,3.76-31.33,16.27-38.63,29.1-34.38,42.63l11.98,35.84c.29,.92,.65,1.79,1.08,2.62,4.22,8.12,14.77,11.37,23.68,6.75,7.78-4.04,12.24-12.33,11.07-20.59l-.56-3.95,31.78-16.51,2.91,2.73c6.09,5.7,15.43,6.82,23.21,2.78,8.84-4.77,12.32-15.13,8.1-23.25Zm-72.59,10.63l-5,2.6,2.6,5.01c1.07,2.07,.26,4.63-1.8,5.71s-4.64,.26-5.71-1.8l-2.6-5.01-5.01,2.61c-2.07,1.07-4.63,.26-5.71-1.81s-.27-4.63,1.8-5.71l5.02-2.61-2.61-5c-1.07-2.07-.26-4.64,1.81-5.71s4.63-.26,5.71,1.81l2.61,5.01,5-2.6c2.07-1.07,4.64-.26,5.71,1.8,1.07,2.07,.4,4.56-1.81,5.71Zm34.08-5.16c-3.46,1.8-7.72,.45-9.51-3.01-1.8-3.46-.45-7.72,3.01-9.51s7.72-.45,9.51,3.01,.45,7.72-3.01,9.51Zm2.21-20.23c-3.46,1.8-7.72,.45-9.51-3.01s-.45-7.72,3.01-9.51,7.72-.45,9.51,3.01,.45,7.72-3.01,9.51Z"/><path class="b" d="M851.62,703.02c-.43-.82-.93-1.62-1.52-2.39l-22.43-30.41c-8.56-11.19-23.16-12.74-54.93,3.76s-38.63,29.1-34.38,42.63l11.98,35.84c.29,.92,.65,1.79,1.08,2.62,4.22,8.12,14.77,11.37,23.68,6.75,7.78-4.04,12.24-12.33,11.07-20.59l-.56-3.95,31.78-16.51,2.91,2.73c6.09,5.7,15.43,6.82,23.21,2.78,8.84-4.77,12.32-15.13,8.1-23.25Zm-72.59,10.63l-5,2.6,2.6,5.01c1.07,2.07,.26,4.63-1.8,5.71s-4.64,.26-5.71-1.8l-2.6-5.01-5.01,2.61c-2.07,1.07-4.63,.26-5.71-1.81s-.27-4.63,1.8-5.71l5.02-2.61-2.61-5c-1.07-2.07-.26-4.64,1.81-5.71s4.63-.26,5.71,1.81l2.61,5.01,5-2.6c2.07-1.07,4.64-.26,5.71,1.8,1.07,2.07,.4,4.56-1.81,5.71Zm34.08-5.16c-3.46,1.8-7.72,.45-9.51-3.01s-.45-7.72,3.01-9.51,7.72-.45,9.51,3.01,.45,7.72-3.01,9.51Zm2.21-20.23c-3.46,1.8-7.72,.45-9.51-3.01s-.45-7.72,3.01-9.51,7.72-.45,9.51,3.01c1.87,3.6,.45,7.72-3.01,9.51Z"/><path class="b" d="M1011.86,793.88c-.43-.82-.93-1.62-1.52-2.39l-22.43-30.41c-8.56-11.19-23.16-12.74-54.93,3.76s-38.63,29.1-34.38,42.63l11.98,35.84c.29,.92,.65,1.79,1.08,2.62,4.22,8.12,14.77,11.37,23.68,6.75,7.78-4.04,12.24-12.33,11.07-20.59l-.56-3.95,31.78-16.51,2.91,2.73c6.09,5.7,15.43,6.82,23.21,2.78,8.84-4.77,12.32-15.13,8.1-23.25Zm-72.59,10.63l-5,2.6,2.6,5.01c1.07,2.07,.26,4.63-1.8,5.71s-4.64,.26-5.71-1.8l-2.6-5.01-5.01,2.61c-2.07,1.07-4.63,.26-5.71-1.81s-.27-4.63,1.8-5.71l5.02-2.61-2.61-5c-1.07-2.07-.26-4.64,1.81-5.71s4.63-.26,5.71,1.81l2.61,5.01,5-2.6c2.07-1.07,4.64-.26,5.71,1.8,1.07,2.07,.4,4.56-1.81,5.71Zm34.08-5.16c-3.46,1.8-7.72,.45-9.51-3.01-1.8-3.46-.45-7.72,3.01-9.51s7.72-.45,9.51,3.01,.45,7.72-3.01,9.51Zm2.21-20.23c-3.46,1.8-7.72,.45-9.51-3.01s-.45-7.72,3.01-9.51,7.72-.45,9.51,3.01,.45,7.72-3.01,9.51Z"/><path class="b" d="M851.62,920.28c-.43-.82-.93-1.62-1.52-2.39l-22.43-30.41c-8.56-11.19-23.16-12.74-54.93,3.76s-38.63,29.1-34.38,42.63l11.98,35.84c.29,.92,.65,1.79,1.08,2.62,4.22,8.12,14.77,11.37,23.68,6.75,7.78-4.04,12.24-12.33,11.07-20.59l-.56-3.95,31.78-16.51,2.91,2.73c6.09,5.7,15.43,6.82,23.21,2.78,8.84-4.77,12.32-15.13,8.1-23.25Zm-72.59,10.63l-5,2.6,2.6,5.01c1.07,2.07,.26,4.63-1.8,5.71s-4.64,.26-5.71-1.8l-2.6-5.01-5.01,2.61c-2.07,1.07-4.63,.26-5.71-1.81s-.27-4.63,1.8-5.71l5.02-2.61-2.61-5c-1.07-2.07-.26-4.64,1.81-5.71s4.63-.26,5.71,1.81l2.61,5.01,5-2.6c2.07-1.07,4.64-.26,5.71,1.8,1.07,2.07,.4,4.56-1.81,5.71Zm34.08-5.16c-3.46,1.8-7.72,.45-9.51-3.01s-.45-7.72,3.01-9.51,7.72-.45,9.51,3.01,.45,7.72-3.01,9.51Zm2.21-20.23c-3.46,1.8-7.72,.45-9.51-3.01s-.45-7.72,3.01-9.51,7.72-.45,9.51,3.01c1.87,3.6,.45,7.72-3.01,9.51Z"/><path class="b" d="M1011.86,1011.14c-.43-.82-.93-1.62-1.52-2.39l-22.43-30.41c-8.56-11.19-23.16-12.74-54.93,3.76s-38.63,29.1-34.38,42.63l11.98,35.84c.29,.92,.65,1.79,1.08,2.62,4.22,8.12,14.77,11.37,23.68,6.75,7.78-4.04,12.24-12.33,11.07-20.59l-.56-3.95,31.78-16.51,2.91,2.73c6.09,5.7,15.43,6.82,23.21,2.78,8.84-4.77,12.32-15.13,8.1-23.25Zm-72.59,10.63l-5,2.6,2.6,5.01c1.07,2.07,.26,4.63-1.8,5.71s-4.64,.26-5.71-1.8l-2.6-5.01-5.01,2.61c-2.07,1.07-4.63,.26-5.71-1.81-1.07-2.07-.27-4.63,1.8-5.71l5.02-2.61-2.61-5c-1.07-2.07-.26-4.64,1.81-5.71,2.07-1.07,4.63-.26,5.71,1.81l2.61,5.01,5-2.6c2.07-1.07,4.64-.26,5.71,1.8,1.07,2.07,.4,4.56-1.81,5.71Zm34.08-5.16c-3.46,1.8-7.72,.45-9.51-3.01s-.45-7.72,3.01-9.51c3.46-1.8,7.72-.45,9.51,3.01,1.87,3.6,.45,7.72-3.01,9.51Zm2.21-20.23c-3.46,1.8-7.72,.45-9.51-3.01s-.45-7.72,3.01-9.51,7.72-.45,9.51,3.01,.45,7.72-3.01,9.51Z"/><path class="b" d="M1204.77,54.8c-.43-.82-.93-1.62-1.52-2.39l-22.43-30.41c-8.56-11.19-23.16-12.74-54.93,3.76-31.33,16.27-38.63,29.1-34.38,42.63l11.98,35.84c.29,.92,.65,1.79,1.08,2.62,4.22,8.12,14.77,11.37,23.68,6.75,7.78-4.04,12.24-12.33,11.07-20.59l-.56-3.95,31.78-16.51,2.91,2.73c6.09,5.7,15.43,6.82,23.21,2.78,8.84-4.77,12.32-15.13,8.1-23.25Zm-72.59,10.63l-5,2.6,2.6,5.01c1.07,2.07,.26,4.63-1.8,5.71-2.07,1.07-4.64,.26-5.71-1.8l-2.6-5.01-5.01,2.61c-2.07,1.07-4.63,.26-5.71-1.81-1.07-2.07-.27-4.63,1.8-5.71l5.02-2.61-2.61-5c-1.07-2.07-.26-4.64,1.81-5.71,2.07-1.07,4.63-.26,5.71,1.81l2.61,5.01,5-2.6c2.07-1.07,4.64-.26,5.71,1.8,1.07,2.07,.4,4.56-1.81,5.71Zm34.08-5.16c-3.46,1.8-7.72,.45-9.51-3.01-1.8-3.46-.45-7.72,3.01-9.51s7.72-.45,9.51,3.01c1.87,3.6,.45,7.72-3.01,9.51Zm2.21-20.23c-3.46,1.8-7.72,.45-9.51-3.01-1.8-3.46-.45-7.72,3.01-9.51,3.46-1.8,7.72-.45,9.51,3.01,1.87,3.6,.45,7.72-3.01,9.51Z"/><path class="b" d="M1365.01,145.67c-.43-.82-.93-1.62-1.52-2.39l-22.43-30.41c-8.56-11.19-23.16-12.74-54.93,3.76-31.33,16.27-38.63,29.1-34.38,42.63l11.98,35.84c.29,.92,.65,1.79,1.08,2.62,4.22,8.12,14.77,11.37,23.68,6.75,7.78-4.04,12.24-12.33,11.07-20.59l-.56-3.95,31.78-16.51,2.91,2.73c6.09,5.7,15.43,6.82,23.21,2.78,8.84-4.77,12.32-15.13,8.1-23.25Zm-72.59,10.63l-5,2.6,2.6,5.01c1.07,2.07,.26,4.63-1.8,5.71s-4.64,.26-5.71-1.8l-2.6-5.01-5.01,2.61c-2.07,1.07-4.63,.26-5.71-1.81s-.27-4.63,1.8-5.71l5.02-2.61-2.61-5c-1.07-2.07-.26-4.64,1.81-5.71,2.07-1.07,4.63-.26,5.71,1.81l2.61,5.01,5-2.6c2.07-1.07,4.64-.26,5.71,1.8,1.07,2.07,.4,4.56-1.81,5.71Zm34.08-5.16c-3.46,1.8-7.72,.45-9.51-3.01-1.8-3.46-.45-7.72,3.01-9.51,3.46-1.8,7.72-.45,9.51,3.01,1.87,3.6,.45,7.72-3.01,9.51Zm2.21-20.23c-3.46,1.8-7.72,.45-9.51-3.01-1.8-3.46-.45-7.72,3.01-9.51s7.72-.45,9.51,3.01c1.87,3.6,.45,7.72-3.01,9.51Z"/><path class="b" d="M1204.77,272.06c-.43-.82-.93-1.62-1.52-2.39l-22.43-30.41c-8.56-11.19-23.16-12.74-54.93,3.76-31.33,16.27-38.63,29.1-34.38,42.63l11.98,35.84c.29,.92,.65,1.79,1.08,2.62,4.22,8.12,14.77,11.37,23.68,6.75,7.78-4.04,12.24-12.33,11.07-20.59l-.56-3.95,31.78-16.51,2.91,2.73c6.09,5.7,15.43,6.82,23.21,2.78,8.84-4.77,12.32-15.13,8.1-23.25Zm-72.59,10.63l-5,2.6,2.6,5.01c1.07,2.07,.26,4.63-1.8,5.71-2.07,1.07-4.64,.26-5.71-1.8l-2.6-5.01-5.01,2.61c-2.07,1.07-4.63,.26-5.71-1.81-1.07-2.07-.27-4.63,1.8-5.71l5.02-2.61-2.61-5c-1.07-2.07-.26-4.64,1.81-5.71,2.07-1.07,4.63-.26,5.71,1.81l2.61,5.01,5-2.6c2.07-1.07,4.64-.26,5.71,1.8,1.07,2.07,.4,4.56-1.81,5.71Zm34.08-5.16c-3.46,1.8-7.72,.45-9.51-3.01-1.8-3.46-.45-7.72,3.01-9.51s7.72-.45,9.51,3.01c1.87,3.6,.45,7.72-3.01,9.51Zm2.21-20.23c-3.46,1.8-7.72,.45-9.51-3.01-1.8-3.46-.45-7.72,3.01-9.51,3.46-1.8,7.72-.45,9.51,3.01,1.87,3.6,.45,7.72-3.01,9.51Z"/><path class="b" d="M1365.01,362.92c-.43-.82-.93-1.62-1.52-2.39l-22.43-30.41c-8.56-11.19-23.16-12.74-54.93,3.76-31.33,16.27-38.63,29.1-34.38,42.63l11.98,35.84c.29,.92,.65,1.79,1.08,2.62,4.22,8.12,14.77,11.37,23.68,6.75,7.78-4.04,12.24-12.33,11.07-20.59l-.56-3.95,31.78-16.51,2.91,2.73c6.09,5.7,15.43,6.82,23.21,2.78,8.84-4.77,12.32-15.13,8.1-23.25Zm-72.59,10.63l-5,2.6,2.6,5.01c1.07,2.07,.26,4.63-1.8,5.71-2.07,1.07-4.64,.26-5.71-1.8l-2.6-5.01-5.01,2.61c-2.07,1.07-4.63,.26-5.71-1.81s-.27-4.63,1.8-5.71l5.02-2.61-2.61-5c-1.07-2.07-.26-4.64,1.81-5.71s4.63-.26,5.71,1.81l2.61,5.01,5-2.6c2.07-1.07,4.64-.26,5.71,1.8,1.07,2.07,.4,4.56-1.81,5.71Zm34.08-5.16c-3.46,1.8-7.72,.45-9.51-3.01-1.8-3.46-.45-7.72,3.01-9.51,3.46-1.8,7.72-.45,9.51,3.01,1.87,3.6,.45,7.72-3.01,9.51Zm2.21-20.23c-3.46,1.8-7.72,.45-9.51-3.01-1.8-3.46-.45-7.72,3.01-9.51,3.46-1.8,7.72-.45,9.51,3.01,1.87,3.6,.45,7.72-3.01,9.51Z"/><path class="b" d="M1204.77,489.32c-.43-.82-.93-1.62-1.52-2.39l-22.43-30.41c-8.56-11.19-23.16-12.74-54.93,3.76-31.33,16.27-38.63,29.1-34.38,42.63l11.98,35.84c.29,.92,.65,1.79,1.08,2.62,4.22,8.12,14.77,11.37,23.68,6.75,7.78-4.04,12.24-12.33,11.07-20.59l-.56-3.95,31.78-16.51,2.91,2.73c6.09,5.7,15.43,6.82,23.21,2.78,8.84-4.77,12.32-15.13,8.1-23.25Zm-72.59,10.63l-5,2.6,2.6,5.01c1.07,2.07,.26,4.63-1.8,5.71-2.07,1.07-4.64,.26-5.71-1.8l-2.6-5.01-5.01,2.61c-2.07,1.07-4.63,.26-5.71-1.81-1.07-2.07-.27-4.63,1.8-5.71l5.02-2.61-2.61-5c-1.07-2.07-.26-4.64,1.81-5.71,2.07-1.07,4.63-.26,5.71,1.81l2.61,5.01,5-2.6c2.07-1.07,4.64-.26,5.71,1.8,1.07,2.07,.4,4.56-1.81,5.71Zm34.08-5.16c-3.46,1.8-7.72,.45-9.51-3.01-1.8-3.46-.45-7.72,3.01-9.51s7.72-.45,9.51,3.01c1.87,3.6,.45,7.72-3.01,9.51Zm2.21-20.23c-3.46,1.8-7.72,.45-9.51-3.01-1.8-3.46-.45-7.72,3.01-9.51,3.46-1.8,7.72-.45,9.51,3.01,1.87,3.6,.45,7.72-3.01,9.51Z"/><path class="b" d="M1365.01,580.18c-.43-.82-.93-1.62-1.52-2.39l-22.43-30.41c-8.56-11.19-23.16-12.74-54.93,3.76s-38.63,29.1-34.38,42.63l11.98,35.84c.29,.92,.65,1.79,1.08,2.62,4.22,8.12,14.77,11.37,23.68,6.75,7.78-4.04,12.24-12.33,11.07-20.59l-.56-3.95,31.78-16.51,2.91,2.73c6.09,5.7,15.43,6.82,23.21,2.78,8.84-4.77,12.32-15.13,8.1-23.25Zm-72.59,10.63l-5,2.6,2.6,5.01c1.07,2.07,.26,4.63-1.8,5.71-2.07,1.07-4.64,.26-5.71-1.8l-2.6-5.01-5.01,2.61c-2.07,1.07-4.63,.26-5.71-1.81s-.27-4.63,1.8-5.71l5.02-2.61-2.61-5c-1.07-2.07-.26-4.64,1.81-5.71,2.07-1.07,4.63-.26,5.71,1.81l2.61,5.01,5-2.6c2.07-1.07,4.64-.26,5.71,1.8,1.07,2.07,.4,4.56-1.81,5.71Zm34.08-5.16c-3.46,1.8-7.72,.45-9.51-3.01-1.8-3.46-.45-7.72,3.01-9.51,3.46-1.8,7.72-.45,9.51,3.01,1.87,3.6,.45,7.72-3.01,9.51Zm2.21-20.23c-3.46,1.8-7.72,.45-9.51-3.01-1.8-3.46-.45-7.72,3.01-9.51,3.46-1.8,7.72-.45,9.51,3.01,1.87,3.6,.45,7.72-3.01,9.51Z"/><path class="b" d="M1204.77,706.58c-.43-.82-.93-1.62-1.52-2.39l-22.43-30.41c-8.56-11.19-23.16-12.74-54.93,3.76-31.33,16.27-38.63,29.1-34.38,42.63l11.98,35.84c.29,.92,.65,1.79,1.08,2.62,4.22,8.12,14.77,11.37,23.68,6.75,7.78-4.04,12.24-12.33,11.07-20.59l-.56-3.95,31.78-16.51,2.91,2.73c6.09,5.7,15.43,6.82,23.21,2.78,8.84-4.77,12.32-15.13,8.1-23.25Zm-72.59,10.63l-5,2.6,2.6,5.01c1.07,2.07,.26,4.63-1.8,5.71-2.07,1.07-4.64,.26-5.71-1.8l-2.6-5.01-5.01,2.61c-2.07,1.07-4.63,.26-5.71-1.81-1.07-2.07-.27-4.63,1.8-5.71l5.02-2.61-2.61-5c-1.07-2.07-.26-4.64,1.81-5.71,2.07-1.07,4.63-.26,5.71,1.81l2.61,5.01,5-2.6c2.07-1.07,4.64-.26,5.71,1.8,1.07,2.07,.4,4.56-1.81,5.71Zm34.08-5.16c-3.46,1.8-7.72,.45-9.51-3.01-1.8-3.46-.45-7.72,3.01-9.51s7.72-.45,9.51,3.01c1.87,3.6,.45,7.72-3.01,9.51Zm2.21-20.23c-3.46,1.8-7.72,.45-9.51-3.01-1.8-3.46-.45-7.72,3.01-9.51,3.46-1.8,7.72-.45,9.51,3.01,1.87,3.6,.45,7.72-3.01,9.51Z"/><path class="b" d="M1365.01,797.44c-.43-.82-.93-1.62-1.52-2.39l-22.43-30.41c-8.56-11.19-23.16-12.74-54.93,3.76-31.33,16.27-38.63,29.1-34.38,42.63l11.98,35.84c.29,.92,.65,1.79,1.08,2.62,4.22,8.12,14.77,11.37,23.68,6.75,7.78-4.04,12.24-12.33,11.07-20.59l-.56-3.95,31.78-16.51,2.91,2.73c6.09,5.7,15.43,6.82,23.21,2.78,8.84-4.77,12.32-15.13,8.1-23.25Zm-72.59,10.63l-5,2.6,2.6,5.01c1.07,2.07,.26,4.63-1.8,5.71-2.07,1.07-4.64,.26-5.71-1.8l-2.6-5.01-5.01,2.61c-2.07,1.07-4.63,.26-5.71-1.81s-.27-4.63,1.8-5.71l5.02-2.61-2.61-5c-1.07-2.07-.26-4.64,1.81-5.71,2.07-1.07,4.63-.26,5.71,1.81l2.61,5.01,5-2.6c2.07-1.07,4.64-.26,5.71,1.8,1.07,2.07,.4,4.56-1.81,5.71Zm34.08-5.16c-3.46,1.8-7.72,.45-9.51-3.01-1.8-3.46-.45-7.72,3.01-9.51s7.72-.45,9.51,3.01c1.87,3.6,.45,7.72-3.01,9.51Zm2.21-20.23c-3.46,1.8-7.72,.45-9.51-3.01-1.8-3.46-.45-7.72,3.01-9.51,3.46-1.8,7.72-.45,9.51,3.01,1.87,3.6,.45,7.72-3.01,9.51Z"/><path class="b" d="M1204.77,923.84c-.43-.82-.93-1.62-1.52-2.39l-22.43-30.41c-8.56-11.19-23.16-12.74-54.93,3.76-31.33,16.27-38.63,29.1-34.38,42.63l11.98,35.84c.29,.92,.65,1.79,1.08,2.62,4.22,8.12,14.77,11.37,23.68,6.75,7.78-4.04,12.24-12.33,11.07-20.59l-.56-3.95,31.78-16.51,2.91,2.73c6.09,5.7,15.43,6.82,23.21,2.78,8.84-4.77,12.32-15.13,8.1-23.25Zm-72.59,10.63l-5,2.6,2.6,5.01c1.07,2.07,.26,4.63-1.8,5.71-2.07,1.07-4.64,.26-5.71-1.8l-2.6-5.01-5.01,2.61c-2.07,1.07-4.63,.26-5.71-1.81-1.07-2.07-.27-4.63,1.8-5.71l5.02-2.61-2.61-5c-1.07-2.07-.26-4.64,1.81-5.71,2.07-1.07,4.63-.26,5.71,1.81l2.61,5.01,5-2.6c2.07-1.07,4.64-.26,5.71,1.8,1.07,2.07,.4,4.56-1.81,5.71Zm34.08-5.16c-3.46,1.8-7.72,.45-9.51-3.01-1.8-3.46-.45-7.72,3.01-9.51s7.72-.45,9.51,3.01c1.87,3.6,.45,7.72-3.01,9.51Zm2.21-20.23c-3.46,1.8-7.72,.45-9.51-3.01-1.8-3.46-.45-7.72,3.01-9.51,3.46-1.8,7.72-.45,9.51,3.01,1.87,3.6,.45,7.72-3.01,9.51Z"/><path class="b" d="M1365.01,1014.7c-.43-.82-.93-1.62-1.52-2.39l-22.43-30.41c-8.56-11.19-23.16-12.74-54.93,3.76-31.33,16.27-38.63,29.1-34.38,42.63l11.98,35.84c.29,.92,.65,1.79,1.08,2.62,4.22,8.12,14.77,11.37,23.68,6.75,7.78-4.04,12.24-12.33,11.07-20.59l-.56-3.95,31.78-16.51,2.91,2.73c6.09,5.7,15.43,6.82,23.21,2.78,8.84-4.77,12.32-15.13,8.1-23.25Zm-72.59,10.63l-5,2.6,2.6,5.01c1.07,2.07,.26,4.63-1.8,5.71-2.07,1.07-4.64,.26-5.71-1.8l-2.6-5.01-5.01,2.61c-2.07,1.07-4.63,.26-5.71-1.81s-.27-4.63,1.8-5.71l5.02-2.61-2.61-5c-1.07-2.07-.26-4.64,1.81-5.71,2.07-1.07,4.63-.26,5.71,1.81l2.61,5.01,5-2.6c2.07-1.07,4.64-.26,5.71,1.8,1.07,2.07,.4,4.56-1.81,5.71Zm34.08-5.16c-3.46,1.8-7.72,.45-9.51-3.01s-.45-7.72,3.01-9.51c3.46-1.8,7.72-.45,9.51,3.01,1.87,3.6,.45,7.72-3.01,9.51Zm2.21-20.23c-3.46,1.8-7.72,.45-9.51-3.01-1.8-3.46-.45-7.72,3.01-9.51,3.46-1.8,7.72-.45,9.51,3.01,1.87,3.6,.45,7.72-3.01,9.51Z"/><path class="b" d="M1525.25,47.75c-.43-.82-.93-1.62-1.52-2.39l-22.43-30.41c-8.56-11.19-23.16-12.74-54.93,3.76-31.33,16.27-38.63,29.1-34.38,42.63l11.98,35.84c.29,.92,.65,1.79,1.08,2.62,4.22,8.12,14.77,11.37,23.68,6.75,7.78-4.04,12.24-12.33,11.07-20.59l-.56-3.95,31.78-16.51,2.91,2.73c6.09,5.7,15.43,6.82,23.21,2.78,8.84-4.77,12.32-15.13,8.1-23.25Zm-72.59,10.63l-5,2.6,2.6,5.01c1.07,2.07,.26,4.63-1.8,5.71-2.07,1.07-4.64,.26-5.71-1.8l-2.6-5.01-5.01,2.61c-2.07,1.07-4.63,.26-5.71-1.81-1.07-2.07-.27-4.63,1.8-5.71l5.02-2.61-2.61-5c-1.07-2.07-.26-4.64,1.81-5.71,2.07-1.07,4.63-.26,5.71,1.81l2.61,5.01,5-2.6c2.07-1.07,4.64-.26,5.71,1.8,1.07,2.07,.4,4.56-1.81,5.71Zm34.08-5.16c-3.46,1.8-7.72,.45-9.51-3.01s-.45-7.72,3.01-9.51,7.72-.45,9.51,3.01c1.87,3.6,.45,7.72-3.01,9.51Zm2.21-20.23c-3.46,1.8-7.72,.45-9.51-3.01-1.8-3.46-.45-7.72,3.01-9.51,3.46-1.8,7.72-.45,9.51,3.01,1.87,3.6,.45,7.72-3.01,9.51Z"/><path class="b" d="M1685.48,138.61c-.43-.82-.93-1.62-1.52-2.39l-22.43-30.41c-8.56-11.19-23.16-12.74-54.93,3.76-31.33,16.27-38.63,29.1-34.38,42.63l11.98,35.84c.29,.92,.65,1.79,1.08,2.62,4.22,8.12,14.77,11.37,23.68,6.75,7.78-4.04,12.24-12.33,11.07-20.59l-.56-3.95,31.78-16.51,2.91,2.73c6.09,5.7,15.43,6.82,23.21,2.78,8.84-4.77,12.32-15.13,8.1-23.25Zm-72.59,10.63l-5,2.6,2.6,5.01c1.07,2.07,.26,4.63-1.8,5.71-2.07,1.07-4.64,.26-5.71-1.8l-2.6-5.01-5.01,2.61c-2.07,1.07-4.63,.26-5.71-1.81s-.27-4.63,1.8-5.71l5.02-2.61-2.61-5c-1.07-2.07-.26-4.64,1.81-5.71,2.07-1.07,4.63-.26,5.71,1.81l2.61,5.01,5-2.6c2.07-1.07,4.64-.26,5.71,1.8,1.07,2.07,.4,4.56-1.81,5.71Zm34.08-5.16c-3.46,1.8-7.72,.45-9.51-3.01-1.8-3.46-.45-7.72,3.01-9.51,3.46-1.8,7.72-.45,9.51,3.01,1.87,3.6,.45,7.72-3.01,9.51Zm2.21-20.23c-3.46,1.8-7.72,.45-9.51-3.01-1.8-3.46-.45-7.72,3.01-9.51,3.46-1.8,7.72-.45,9.51,3.01,1.87,3.6,.45,7.72-3.01,9.51Z"/><path class="b" d="M1525.25,265c-.43-.82-.93-1.62-1.52-2.39l-22.43-30.41c-8.56-11.19-23.16-12.74-54.93,3.76-31.33,16.27-38.63,29.1-34.38,42.63l11.98,35.84c.29,.92,.65,1.79,1.08,2.62,4.22,8.12,14.77,11.37,23.68,6.75,7.78-4.04,12.24-12.33,11.07-20.59l-.56-3.95,31.78-16.51,2.91,2.73c6.09,5.7,15.43,6.82,23.21,2.78,8.84-4.77,12.32-15.13,8.1-23.25Zm-72.59,10.63l-5,2.6,2.6,5.01c1.07,2.07,.26,4.63-1.8,5.71-2.07,1.07-4.64,.26-5.71-1.8l-2.6-5.01-5.01,2.61c-2.07,1.07-4.63,.26-5.71-1.81-1.07-2.07-.27-4.63,1.8-5.71l5.02-2.61-2.61-5c-1.07-2.07-.26-4.64,1.81-5.71,2.07-1.07,4.63-.26,5.71,1.81l2.61,5.01,5-2.6c2.07-1.07,4.64-.26,5.71,1.8,1.07,2.07,.4,4.56-1.81,5.71Zm34.08-5.16c-3.46,1.8-7.72,.45-9.51-3.01s-.45-7.72,3.01-9.51,7.72-.45,9.51,3.01c1.87,3.6,.45,7.72-3.01,9.51Zm2.21-20.23c-3.46,1.8-7.72,.45-9.51-3.01-1.8-3.46-.45-7.72,3.01-9.51,3.46-1.8,7.72-.45,9.51,3.01,1.87,3.6,.45,7.72-3.01,9.51Z"/><path class="b" d="M1685.48,355.87c-.43-.82-.93-1.62-1.52-2.39l-22.43-30.41c-8.56-11.19-23.16-12.74-54.93,3.76-31.33,16.27-38.63,29.1-34.38,42.63l11.98,35.84c.29,.92,.65,1.79,1.08,2.62,4.22,8.12,14.77,11.37,23.68,6.75,7.78-4.04,12.24-12.33,11.07-20.59l-.56-3.95,31.78-16.51,2.91,2.73c6.09,5.7,15.43,6.82,23.21,2.78,8.84-4.77,12.32-15.13,8.1-23.25Zm-72.59,10.63l-5,2.6,2.6,5.01c1.07,2.07,.26,4.63-1.8,5.71-2.07,1.07-4.64,.26-5.71-1.8l-2.6-5.01-5.01,2.61c-2.07,1.07-4.63,.26-5.71-1.81s-.27-4.63,1.8-5.71l5.02-2.61-2.61-5c-1.07-2.07-.26-4.64,1.81-5.71s4.63-.26,5.71,1.81l2.61,5.01,5-2.6c2.07-1.07,4.64-.26,5.71,1.8,1.07,2.07,.4,4.56-1.81,5.71Zm34.08-5.16c-3.46,1.8-7.72,.45-9.51-3.01-1.8-3.46-.45-7.72,3.01-9.51,3.46-1.8,7.72-.45,9.51,3.01,1.87,3.6,.45,7.72-3.01,9.51Zm2.21-20.23c-3.46,1.8-7.72,.45-9.51-3.01-1.8-3.46-.45-7.72,3.01-9.51,3.46-1.8,7.72-.45,9.51,3.01,1.87,3.6,.45,7.72-3.01,9.51Z"/><path class="b" d="M1525.25,482.26c-.43-.82-.93-1.62-1.52-2.39l-22.43-30.41c-8.56-11.19-23.16-12.74-54.93,3.76-31.33,16.27-38.63,29.1-34.38,42.63l11.98,35.84c.29,.92,.65,1.79,1.08,2.62,4.22,8.12,14.77,11.37,23.68,6.75,7.78-4.04,12.24-12.33,11.07-20.59l-.56-3.95,31.78-16.51,2.91,2.73c6.09,5.7,15.43,6.82,23.21,2.78,8.84-4.77,12.32-15.13,8.1-23.25Zm-72.59,10.63l-5,2.6,2.6,5.01c1.07,2.07,.26,4.63-1.8,5.71-2.07,1.07-4.64,.26-5.71-1.8l-2.6-5.01-5.01,2.61c-2.07,1.07-4.63,.26-5.71-1.81-1.07-2.07-.27-4.63,1.8-5.71l5.02-2.61-2.61-5c-1.07-2.07-.26-4.64,1.81-5.71,2.07-1.07,4.63-.26,5.71,1.81l2.61,5.01,5-2.6c2.07-1.07,4.64-.26,5.71,1.8,1.07,2.07,.4,4.56-1.81,5.71Zm34.08-5.16c-3.46,1.8-7.72,.45-9.51-3.01s-.45-7.72,3.01-9.51,7.72-.45,9.51,3.01c1.87,3.6,.45,7.72-3.01,9.51Zm2.21-20.23c-3.46,1.8-7.72,.45-9.51-3.01-1.8-3.46-.45-7.72,3.01-9.51,3.46-1.8,7.72-.45,9.51,3.01,1.87,3.6,.45,7.72-3.01,9.51Z"/><path class="b" d="M1685.48,573.12c-.43-.82-.93-1.62-1.52-2.39l-22.43-30.41c-8.56-11.19-23.16-12.74-54.93,3.76-31.33,16.27-38.63,29.1-34.38,42.63l11.98,35.84c.29,.92,.65,1.79,1.08,2.62,4.22,8.12,14.77,11.37,23.68,6.75,7.78-4.04,12.24-12.33,11.07-20.59l-.56-3.95,31.78-16.51,2.91,2.73c6.09,5.7,15.43,6.82,23.21,2.78,8.84-4.77,12.32-15.13,8.1-23.25Zm-72.59,10.63l-5,2.6,2.6,5.01c1.07,2.07,.26,4.63-1.8,5.71-2.07,1.07-4.64,.26-5.71-1.8l-2.6-5.01-5.01,2.61c-2.07,1.07-4.63,.26-5.71-1.81s-.27-4.63,1.8-5.71l5.02-2.61-2.61-5c-1.07-2.07-.26-4.64,1.81-5.71,2.07-1.07,4.63-.26,5.71,1.81l2.61,5.01,5-2.6c2.07-1.07,4.64-.26,5.71,1.8,1.07,2.07,.4,4.56-1.81,5.71Zm34.08-5.16c-3.46,1.8-7.72,.45-9.51-3.01-1.8-3.46-.45-7.72,3.01-9.51,3.46-1.8,7.72-.45,9.51,3.01,1.87,3.6,.45,7.72-3.01,9.51Zm2.21-20.23c-3.46,1.8-7.72,.45-9.51-3.01-1.8-3.46-.45-7.72,3.01-9.51,3.46-1.8,7.72-.45,9.51,3.01,1.87,3.6,.45,7.72-3.01,9.51Z"/><path class="b" d="M1525.25,699.52c-.43-.82-.93-1.62-1.52-2.39l-22.43-30.41c-8.56-11.19-23.16-12.74-54.93,3.76-31.33,16.27-38.63,29.1-34.38,42.63l11.98,35.84c.29,.92,.65,1.79,1.08,2.62,4.22,8.12,14.77,11.37,23.68,6.75,7.78-4.04,12.24-12.33,11.07-20.59l-.56-3.95,31.78-16.51,2.91,2.73c6.09,5.7,15.43,6.82,23.21,2.78,8.84-4.77,12.32-15.13,8.1-23.25Zm-72.59,10.63l-5,2.6,2.6,5.01c1.07,2.07,.26,4.63-1.8,5.71-2.07,1.07-4.64,.26-5.71-1.8l-2.6-5.01-5.01,2.61c-2.07,1.07-4.63,.26-5.71-1.81-1.07-2.07-.27-4.63,1.8-5.71l5.02-2.61-2.61-5c-1.07-2.07-.26-4.64,1.81-5.71,2.07-1.07,4.63-.26,5.71,1.81l2.61,5.01,5-2.6c2.07-1.07,4.64-.26,5.71,1.8,1.07,2.07,.4,4.56-1.81,5.71Zm34.08-5.16c-3.46,1.8-7.72,.45-9.51-3.01-1.8-3.46-.45-7.72,3.01-9.51s7.72-.45,9.51,3.01c1.87,3.6,.45,7.72-3.01,9.51Zm2.21-20.23c-3.46,1.8-7.72,.45-9.51-3.01-1.8-3.46-.45-7.72,3.01-9.51,3.46-1.8,7.72-.45,9.51,3.01,1.87,3.6,.45,7.72-3.01,9.51Z"/><path class="b" d="M1685.48,790.38c-.43-.82-.93-1.62-1.52-2.39l-22.43-30.41c-8.56-11.19-23.16-12.74-54.93,3.76-31.33,16.27-38.63,29.1-34.38,42.63l11.98,35.84c.29,.92,.65,1.79,1.08,2.62,4.22,8.12,14.77,11.37,23.68,6.75,7.78-4.04,12.24-12.33,11.07-20.59l-.56-3.95,31.78-16.51,2.91,2.73c6.09,5.7,15.43,6.82,23.21,2.78,8.84-4.77,12.32-15.13,8.1-23.25Zm-72.59,10.63l-5,2.6,2.6,5.01c1.07,2.07,.26,4.63-1.8,5.71-2.07,1.07-4.64,.26-5.71-1.8l-2.6-5.01-5.01,2.61c-2.07,1.07-4.63,.26-5.71-1.81s-.27-4.63,1.8-5.71l5.02-2.61-2.61-5c-1.07-2.07-.26-4.64,1.81-5.71,2.07-1.07,4.63-.26,5.71,1.81l2.61,5.01,5-2.6c2.07-1.07,4.64-.26,5.71,1.8,1.07,2.07,.4,4.56-1.81,5.71Zm34.08-5.16c-3.46,1.8-7.72,.45-9.51-3.01-1.8-3.46-.45-7.72,3.01-9.51,3.46-1.8,7.72-.45,9.51,3.01,1.87,3.6,.45,7.72-3.01,9.51Zm2.21-20.23c-3.46,1.8-7.72,.45-9.51-3.01-1.8-3.46-.45-7.72,3.01-9.51,3.46-1.8,7.72-.45,9.51,3.01,1.87,3.6,.45,7.72-3.01,9.51Z"/><path class="b" d="M1525.25,916.78c-.43-.82-.93-1.62-1.52-2.39l-22.43-30.41c-8.56-11.19-23.16-12.74-54.93,3.76-31.33,16.27-38.63,29.1-34.38,42.63l11.98,35.84c.29,.92,.65,1.79,1.08,2.62,4.22,8.12,14.77,11.37,23.68,6.75,7.78-4.04,12.24-12.33,11.07-20.59l-.56-3.95,31.78-16.51,2.91,2.73c6.09,5.7,15.43,6.82,23.21,2.78,8.84-4.77,12.32-15.13,8.1-23.25Zm-72.59,10.63l-5,2.6,2.6,5.01c1.07,2.07,.26,4.63-1.8,5.71-2.07,1.07-4.64,.26-5.71-1.8l-2.6-5.01-5.01,2.61c-2.07,1.07-4.63,.26-5.71-1.81-1.07-2.07-.27-4.63,1.8-5.71l5.02-2.61-2.61-5c-1.07-2.07-.26-4.64,1.81-5.71,2.07-1.07,4.63-.26,5.71,1.81l2.61,5.01,5-2.6c2.07-1.07,4.64-.26,5.71,1.8,1.07,2.07,.4,4.56-1.81,5.71Zm34.08-5.16c-3.46,1.8-7.72,.45-9.51-3.01-1.8-3.46-.45-7.72,3.01-9.51s7.72-.45,9.51,3.01c1.87,3.6,.45,7.72-3.01,9.51Zm2.21-20.23c-3.46,1.8-7.72,.45-9.51-3.01-1.8-3.46-.45-7.72,3.01-9.51,3.46-1.8,7.72-.45,9.51,3.01,1.87,3.6,.45,7.72-3.01,9.51Z"/><path class="b" d="M1685.48,1007.64c-.43-.82-.93-1.62-1.52-2.39l-22.43-30.41c-8.56-11.19-23.16-12.74-54.93,3.76-31.33,16.27-38.63,29.1-34.38,42.63l11.98,35.84c.29,.92,.65,1.79,1.08,2.62,4.22,8.12,14.77,11.37,23.68,6.75,7.78-4.04,12.24-12.33,11.07-20.59l-.56-3.95,31.78-16.51,2.91,2.73c6.09,5.7,15.43,6.82,23.21,2.78,8.84-4.77,12.32-15.13,8.1-23.25Zm-72.59,10.63l-5,2.6,2.6,5.01c1.07,2.07,.26,4.63-1.8,5.71-2.07,1.07-4.64,.26-5.71-1.8l-2.6-5.01-5.01,2.61c-2.07,1.07-4.63,.26-5.71-1.81-1.07-2.07-.27-4.63,1.8-5.71l5.02-2.61-2.61-5c-1.07-2.07-.26-4.64,1.81-5.71,2.07-1.07,4.63-.26,5.71,1.81l2.61,5.01,5-2.6c2.07-1.07,4.64-.26,5.71,1.8,1.07,2.07,.4,4.56-1.81,5.71Zm34.08-5.16c-3.46,1.8-7.72,.45-9.51-3.01-1.8-3.46-.45-7.72,3.01-9.51,3.46-1.8,7.72-.45,9.51,3.01,1.87,3.6,.45,7.72-3.01,9.51Zm2.21-20.23c-3.46,1.8-7.72,.45-9.51-3.01-1.8-3.46-.45-7.72,3.01-9.51,3.46-1.8,7.72-.45,9.51,3.01,1.87,3.6,.45,7.72-3.01,9.51Z"/><path class="b" d="M1878.39,51.31c-.43-.82-.93-1.62-1.52-2.39l-22.43-30.41c-8.56-11.19-23.16-12.74-54.93,3.76-31.33,16.27-38.63,29.1-34.38,42.63l11.98,35.84c.29,.92,.65,1.79,1.08,2.62,4.22,8.12,14.77,11.37,23.68,6.75,7.78-4.04,12.24-12.33,11.07-20.59l-.56-3.95,31.78-16.51,2.91,2.73c6.09,5.7,15.43,6.82,23.21,2.78,8.84-4.77,12.32-15.13,8.1-23.25Zm-72.59,10.63l-5,2.6,2.6,5.01c1.07,2.07,.26,4.63-1.8,5.71s-4.64,.26-5.71-1.8l-2.6-5.01-5.01,2.61c-2.07,1.07-4.63,.26-5.71-1.81-1.07-2.07-.27-4.63,1.8-5.71l5.02-2.61-2.61-5c-1.07-2.07-.26-4.64,1.81-5.71,2.07-1.07,4.63-.26,5.71,1.81l2.61,5.01,5-2.6c2.07-1.07,4.64-.26,5.71,1.8,1.07,2.07,.4,4.56-1.81,5.71Zm34.08-5.16c-3.46,1.8-7.72,.45-9.51-3.01-1.8-3.46-.45-7.72,3.01-9.51s7.72-.45,9.51,3.01c1.87,3.6,.45,7.72-3.01,9.51Zm2.21-20.23c-3.46,1.8-7.72,.45-9.51-3.01-1.8-3.46-.45-7.72,3.01-9.51s7.72-.45,9.51,3.01,.45,7.72-3.01,9.51Z"/><path class="b" d="M1878.39,268.56c-.43-.82-.93-1.62-1.52-2.39l-22.43-30.41c-8.56-11.19-23.16-12.74-54.93,3.76-31.33,16.27-38.63,29.1-34.38,42.63l11.98,35.84c.29,.92,.65,1.79,1.08,2.62,4.22,8.12,14.77,11.37,23.68,6.75,7.78-4.04,12.24-12.33,11.07-20.59l-.56-3.95,31.78-16.51,2.91,2.73c6.09,5.7,15.43,6.82,23.21,2.78,8.84-4.77,12.32-15.13,8.1-23.25Zm-72.59,10.63l-5,2.6,2.6,5.01c1.07,2.07,.26,4.63-1.8,5.71s-4.64,.26-5.71-1.8l-2.6-5.01-5.01,2.61c-2.07,1.07-4.63,.26-5.71-1.81-1.07-2.07-.27-4.63,1.8-5.71l5.02-2.61-2.61-5c-1.07-2.07-.26-4.64,1.81-5.71,2.07-1.07,4.63-.26,5.71,1.81l2.61,5.01,5-2.6c2.07-1.07,4.64-.26,5.71,1.8,1.07,2.07,.4,4.56-1.81,5.71Zm34.08-5.16c-3.46,1.8-7.72,.45-9.51-3.01-1.8-3.46-.45-7.72,3.01-9.51s7.72-.45,9.51,3.01c1.87,3.6,.45,7.72-3.01,9.51Zm2.21-20.23c-3.46,1.8-7.72,.45-9.51-3.01-1.8-3.46-.45-7.72,3.01-9.51s7.72-.45,9.51,3.01,.45,7.72-3.01,9.51Z"/><path class="b" d="M1878.39,485.82c-.43-.82-.93-1.62-1.52-2.39l-22.43-30.41c-8.56-11.19-23.16-12.74-54.93,3.76-31.33,16.27-38.63,29.1-34.38,42.63l11.98,35.84c.29,.92,.65,1.79,1.08,2.62,4.22,8.12,14.77,11.37,23.68,6.75,7.78-4.04,12.24-12.33,11.07-20.59l-.56-3.95,31.78-16.51,2.91,2.73c6.09,5.7,15.43,6.82,23.21,2.78,8.84-4.77,12.32-15.13,8.1-23.25Zm-72.59,10.63l-5,2.6,2.6,5.01c1.07,2.07,.26,4.63-1.8,5.71s-4.64,.26-5.71-1.8l-2.6-5.01-5.01,2.61c-2.07,1.07-4.63,.26-5.71-1.81-1.07-2.07-.27-4.63,1.8-5.71l5.02-2.61-2.61-5c-1.07-2.07-.26-4.64,1.81-5.71,2.07-1.07,4.63-.26,5.71,1.81l2.61,5.01,5-2.6c2.07-1.07,4.64-.26,5.71,1.8,1.07,2.07,.4,4.56-1.81,5.71Zm34.08-5.16c-3.46,1.8-7.72,.45-9.51-3.01-1.8-3.46-.45-7.72,3.01-9.51s7.72-.45,9.51,3.01c1.87,3.6,.45,7.72-3.01,9.51Zm2.21-20.23c-3.46,1.8-7.72,.45-9.51-3.01-1.8-3.46-.45-7.72,3.01-9.51s7.72-.45,9.51,3.01,.45,7.72-3.01,9.51Z"/><path class="b" d="M1878.39,703.08c-.43-.82-.93-1.62-1.52-2.39l-22.43-30.41c-8.56-11.19-23.16-12.74-54.93,3.76-31.33,16.27-38.63,29.1-34.38,42.63l11.98,35.84c.29,.92,.65,1.79,1.08,2.62,4.22,8.12,14.77,11.37,23.68,6.75,7.78-4.04,12.24-12.33,11.07-20.59l-.56-3.95,31.78-16.51,2.91,2.73c6.09,5.7,15.43,6.82,23.21,2.78,8.84-4.77,12.32-15.13,8.1-23.25Zm-72.59,10.63l-5,2.6,2.6,5.01c1.07,2.07,.26,4.63-1.8,5.71s-4.64,.26-5.71-1.8l-2.6-5.01-5.01,2.61c-2.07,1.07-4.63,.26-5.71-1.81-1.07-2.07-.27-4.63,1.8-5.71l5.02-2.61-2.61-5c-1.07-2.07-.26-4.64,1.81-5.71,2.07-1.07,4.63-.26,5.71,1.81l2.61,5.01,5-2.6c2.07-1.07,4.64-.26,5.71,1.8,1.07,2.07,.4,4.56-1.81,5.71Zm34.08-5.16c-3.46,1.8-7.72,.45-9.51-3.01-1.8-3.46-.45-7.72,3.01-9.51s7.72-.45,9.51,3.01c1.87,3.6,.45,7.72-3.01,9.51Zm2.21-20.23c-3.46,1.8-7.72,.45-9.51-3.01-1.8-3.46-.45-7.72,3.01-9.51,3.46-1.8,7.72-.45,9.51,3.01s.45,7.72-3.01,9.51Z"/><path class="b" d="M1878.39,920.34c-.43-.82-.93-1.62-1.52-2.39l-22.43-30.41c-8.56-11.19-23.16-12.74-54.93,3.76-31.33,16.27-38.63,29.1-34.38,42.63l11.98,35.84c.29,.92,.65,1.79,1.08,2.62,4.22,8.12,14.77,11.37,23.68,6.75,7.78-4.04,12.24-12.33,11.07-20.59l-.56-3.95,31.78-16.51,2.91,2.73c6.09,5.7,15.43,6.82,23.21,2.78,8.84-4.77,12.32-15.13,8.1-23.25Zm-72.59,10.63l-5,2.6,2.6,5.01c1.07,2.07,.26,4.63-1.8,5.71s-4.64,.26-5.71-1.8l-2.6-5.01-5.01,2.61c-2.07,1.07-4.63,.26-5.71-1.81-1.07-2.07-.27-4.63,1.8-5.71l5.02-2.61-2.61-5c-1.07-2.07-.26-4.64,1.81-5.71,2.07-1.07,4.63-.26,5.71,1.81l2.61,5.01,5-2.6c2.07-1.07,4.64-.26,5.71,1.8,1.07,2.07,.4,4.56-1.81,5.71Zm34.08-5.16c-3.46,1.8-7.72,.45-9.51-3.01-1.8-3.46-.45-7.72,3.01-9.51s7.72-.45,9.51,3.01c1.87,3.6,.45,7.72-3.01,9.51Zm2.21-20.23c-3.46,1.8-7.72,.45-9.51-3.01-1.8-3.46-.45-7.72,3.01-9.51,3.46-1.8,7.72-.45,9.51,3.01s.45,7.72-3.01,9.51Z"/></svg>