<?xml version="1.0" encoding="UTF-8"?><svg xmlns="http://www.w3.org/2000/svg" viewBox="0 0 116.15 102.23"><defs><style>.d{fill:#5ca35b;}</style></defs><g id="a"/><g id="b"><g id="c"><path class="d" d="M114.36,41.32c-.43-.82-.93-1.62-1.52-2.39l-22.43-30.41c-8.56-11.19-23.16-12.74-54.93,3.76S-3.15,41.38,1.11,54.9l11.98,35.84c.29,.92,.65,1.79,1.08,2.62,4.22,8.12,14.77,11.37,23.68,6.75,7.78-4.04,12.24-12.33,11.07-20.59l-.56-3.95,31.78-16.51,2.91,2.73c6.09,5.7,15.43,6.82,23.21,2.78,8.84-4.77,12.32-15.13,8.1-23.25Zm-72.59,10.63l-5,2.6,2.6,5.01c1.07,2.07,.26,4.63-1.8,5.71s-4.64,.26-5.71-1.8l-2.6-5.01-5.01,2.61c-2.07,1.07-4.63,.26-5.71-1.81s-.27-4.63,1.8-5.71l5.02-2.61-2.61-5c-1.07-2.07-.26-4.64,1.81-5.71s4.63-.26,5.71,1.81l2.61,5.01,5-2.6c2.07-1.07,4.64-.26,5.71,1.8,1.07,2.07,.4,4.56-1.81,5.71Zm34.08-5.16c-3.46,1.8-7.72,.45-9.51-3.01s-.45-7.72,3.01-9.51,7.72-.45,9.51,3.01,.45,7.72-3.01,9.51Zm2.21-20.23c-3.46,1.8-7.72,.45-9.51-3.01-1.8-3.46-.45-7.72,3.01-9.51s7.72-.45,9.51,3.01,.45,7.72-3.01,9.51Z"/></g></g></svg>